<?xml version="1.0" encoding="UTF-8"?>
<svg xmlns="http://www.w3.org/2000/svg" width="106" height="39" viewBox="0 0 106 39" fill="none">
  <path d="M39.6147 3.64047C46.714 3.25722 72.4397 0.173067 83.1278 1.94547C93.8159 3.71788 101.413 9.55495 103.743 14.2749C106.074 18.9949 101.061 26.477 97.1108 30.2652C93.1603 34.0534 89.6889 36.0882 80.0403 37.0043C70.3917 37.9204 50.1821 36.3986 39.2192 35.7619C28.2563 35.1252 19.716 35.1835 14.263 33.1841C8.81 31.1847 8.63088 27.1561 6.5013 23.7657C4.37172 20.3753 1.30541 16.1145 1.48551 12.8416C1.6656 9.56861 3.61998 6.10041 7.58189 4.12794C11.5438 2.15546 14.0131 0.896238 25.257 1.00674C36.5008 1.11724 66.6497 4.03199 75.0452 4.79092M39.0672 3.27285C46.293 3.16859 71.3977 -0.336112 82.2733 1.78764C93.1489 3.9114 101.768 11.2119 104.321 16.0154C106.874 20.8189 101.7 27.1827 97.5921 30.6087C93.4845 34.0347 89.4672 35.8447 79.6748 36.5714C69.8824 37.2981 49.8716 35.3716 38.8378 34.9688C27.804 34.566 18.751 35.9653 13.472 34.1546C8.193 32.3439 9.2423 27.6804 7.16367 24.1044C5.08504 20.5285 0.96205 15.9283 1.00026 12.6988C1.03848 9.46933 3.46363 6.59211 7.39295 4.72738C11.3223 2.86265 13.5813 1.72801 24.5762 1.51044C35.571 1.29286 64.9632 3.05202 73.3622 3.42194" stroke="#232222" stroke-width="2"></path>
</svg>
