<?xml version="1.0" encoding="UTF-8"?>
<svg xmlns="http://www.w3.org/2000/svg" width="104" height="38" viewBox="0 0 104 38" fill="none">
  <path d="M68.8669 2.38063C62.6737 2.26014 42.0836 0.795256 32.2133 1.87135C22.3431 2.94745 14.757 6.2852 9.64544 8.8372C4.53386 11.3892 2.45569 13.2627 1.54385 17.1833C0.63201 21.1039 1.57911 29.1183 4.17439 32.3608C6.76967 35.6033 8.48946 35.9554 17.1155 36.6385C25.7416 37.3216 43.959 36.6094 55.9308 36.4594C67.9027 36.3094 81.4697 38.1713 88.9467 35.7386C96.4236 33.3058 98.6089 26.1602 100.792 21.8629C102.976 17.5656 103.083 12.8667 102.048 9.95476C101.013 7.0428 98.4209 5.81886 94.5829 4.39112C90.7449 2.96339 88.2273 1.69402 79.0198 1.38835C69.8122 1.08269 45.8344 2.42744 39.3379 2.55714M68.5794 1.03248C62.3017 0.98889 42.2868 0.848542 32.6408 1.84054C22.9948 2.83255 15.8812 4.40404 10.7034 6.9845C5.52559 9.56497 2.76336 12.9055 1.57403 17.3233C0.384696 21.7412 1.04082 30.4187 3.56739 33.4916C6.09396 36.5646 7.87054 35.5015 16.7334 35.7613C25.5963 36.0211 44.537 35.0391 56.7447 35.0503C68.9524 35.0614 82.4904 37.8981 89.9797 35.8283C97.469 33.7585 99.6824 26.9862 101.681 22.6313C103.679 18.2764 103.098 12.5678 101.969 9.69897C100.839 6.83019 98.6678 6.76392 94.9019 5.41857C91.1361 4.07321 88.4202 2.16846 79.3735 1.62684C70.3268 1.08522 47.2484 2.24529 40.6217 2.16885" stroke="#232222" stroke-width="2"></path>
</svg>
