<?xml version="1.0" encoding="UTF-8"?>
<svg xmlns="http://www.w3.org/2000/svg" width="87" height="40" viewBox="0 0 87 40" fill="none">
  <path d="M42.2195 5.47986C37.242 6.22558 19.1154 5.90691 12.4301 9.16718C5.74472 12.4274 1.66532 20.8114 2.10741 25.0414C2.54949 29.2715 4.51004 32.2647 15.0826 34.5474C25.6551 36.8301 54.4242 39.9241 65.5425 38.7376C76.6608 37.5512 78.7033 32.1805 81.7924 27.4287C84.8815 22.6769 87.1904 14.3063 84.0772 10.227C80.9639 6.14759 72.5544 3.75418 63.113 2.95246C53.6717 2.15074 33.4233 5.10257 27.4289 5.41665M43.5978 6.17215C38.4722 6.80752 20.0975 5.3991 13.0003 8.39212C5.90306 11.3851 0.688061 19.7622 1.01452 24.1303C1.34098 28.4984 4.02135 32.3421 14.959 34.601C25.8967 36.8598 55.5685 38.7933 66.6406 37.6834C77.7127 36.5736 78.3815 32.7016 81.3915 27.9417C84.4014 23.1819 87.968 13.6045 84.7002 9.12433C81.4325 4.64419 71.4131 1.66363 61.7851 1.06094C52.1572 0.458261 32.4071 4.48778 26.9324 5.50823" stroke="#0A8341" stroke-width="2"></path>
</svg>
